<svg width="600" height="600" viewBox="0 0 600 600" fill="none" xmlns="http://www.w3.org/2000/svg">
<rect width="600" height="600" fill="#DDDBD4"/>
<path d="M115.21 306.715C118.244 306.715 121.277 306.715 124.31 306.715V325.825C124.31 354.642 117.94 375.269 105.504 382.852H115.514C137.961 382.852 163.441 351.305 163.441 317.938V257.574C163.441 240.587 166.778 223.297 176.788 213.894C178.304 212.68 179.518 211.77 181.034 210.557C194.078 202.367 202.875 191.75 204.391 189.93L204.695 181.74C198.628 187.504 189.831 191.75 178.911 191.75C164.351 191.75 153.127 184.167 138.567 184.167C105.807 184.167 88.2133 224.814 87 227.847H93.9767C97.0101 220.567 104.29 215.714 114.3 215.714C126.13 215.714 137.051 220.264 149.184 220.264C153.431 220.264 157.677 219.657 161.621 218.747C138.871 235.431 124.007 237.857 124.31 269.101V273.348C114.604 273.348 110.357 274.561 106.414 276.381C95.7968 280.931 88.5167 291.548 88.5167 306.412C88.5167 312.478 90.0334 318.848 92.4601 324.308H98.2235C96.1001 313.995 103.077 306.715 115.21 306.715ZM182.551 366.169C207.425 347.059 215.615 336.745 215.615 312.782V242.711C215.918 216.927 222.592 196.907 245.948 189.93L251.105 188.414V181.74L247.768 182.347C199.841 191.144 176.788 210.254 176.788 269.101V314.298C176.788 340.992 173.754 358.585 164.048 369.506C134.321 377.696 112.177 396.503 99.1335 419.859V425.623C121.277 409.243 147.364 400.143 176.181 400.143C199.235 400.143 221.985 406.513 241.702 417.736L286.292 384.672L281.439 377.696L271.429 384.976C250.498 374.359 225.018 365.562 195.595 365.562C191.044 365.562 186.798 365.866 182.551 366.169Z" fill="black"/>
<path d="M339.935 231.487V292.458L382.403 320.365L379.672 322.792C357.832 342.205 324.769 371.932 324.769 406.513C324.769 444.126 360.259 469 399.996 469C440.036 469 478.56 443.823 487.357 408.333L479.167 406.209C470.37 435.026 431.543 445.643 400.906 445.643C374.516 445.643 339.632 440.486 333.869 413.489C331.139 391.346 353.889 387.402 370.876 387.402C393.626 387.402 412.13 399.233 424.87 413.186L507.984 360.709V284.571C495.244 274.258 480.077 265.461 463.09 259.698C486.75 238.464 513.747 212.68 513.747 173.55V169.303H510.714V169H505.254C503.737 187.504 487.357 198.727 468.854 198.727C451.26 198.727 434.576 189.93 423.05 179.313L339.935 231.487ZM442.16 364.956C427.903 357.069 411.22 351.609 392.109 351.609C376.032 351.609 361.472 356.462 350.249 364.652C361.169 350.395 375.122 338.262 385.133 329.162L431.543 287.908L442.16 293.065V364.956ZM450.653 369.809V297.311L468.247 305.805V375.572L462.483 378.302C458.843 375.572 454.9 372.539 450.653 369.809ZM396.356 220.567V281.841L379.672 270.011V217.837L385.436 213.894C388.773 216.321 392.413 218.444 396.356 220.567ZM404.849 225.117C417.59 231.184 432.15 235.734 448.833 235.734C461.877 235.734 474.314 232.094 484.627 225.724C474.01 238.767 461.27 249.991 450.35 259.698L412.736 293.065L404.849 287.605V225.117Z" fill="black"/>
</svg>
